<svg id="Capa_1" enable-background="new 0 0 512 512" height="512" viewBox="0 0 512 512" width="512" xmlns="http://www.w3.org/2000/svg"><g><g><path d="m504.395 241.068c-4.2 0-7.605-3.402-7.605-7.599v-106.228h-26.13c-4.2 0-7.605-3.402-7.605-7.599s3.405-7.599 7.605-7.599h33.735c4.2 0 7.605 3.402 7.605 7.599v113.828c0 4.196-3.405 7.598-7.605 7.598z" fill="#cecece"/></g><g><path clip-rule="evenodd" d="m0 68.757v412.013c0 3.419 2.833 6.23 6.28 6.23h100.096 214.241 42.527c3.447 0 6.309-2.811 6.309-6.23 0-214.12 0-144.949 0-378.195l-.029-3.883c0-.58-.058-.985-.263-1.391h-50.91c-13.903 0-25.294-11.273-25.265-25.066l.029-46.916c-.496-.232-.963-.319-1.635-.319h-4.703-280.397c-3.447 0-6.28 2.811-6.28 6.23z" fill="#f9f7f7" fill-rule="evenodd"/></g><g><path clip-rule="evenodd" d="m223.559 25c48.252 49.35 79.68 129.794 79.68 220.698 0 19.676-1.49 38.86-4.294 57.377-.876 5.941-1.928 11.794-3.096 17.59-1.402 6.955-3.008 13.823-4.79 20.575-16.678 63.057-49.391 114.986-91.1 145.761h120.659 42.527c3.447 0 6.309-2.811 6.309-6.23v-69.867-92.499-215.83l-.029-3.883c0-.58-.058-.985-.263-1.391l-76.146-71.982c-.497-.232-.964-.319-1.636-.319h-4.703z" fill="#e2e2e2" fill-rule="evenodd"/></g><g><path clip-rule="evenodd" d="m293.016 25.319-.029 46.916c-.029 13.794 11.362 25.066 25.265 25.066h50.91c-.438-.84-1.402-1.565-3.301-3.39l-68.785-65.085c-2.133-2.029-3.096-3.044-4.06-3.507z" fill="#cecece" fill-rule="evenodd"/></g><g><path d="m247.772 139.268h-142.448c-4.2 0-7.605-3.402-7.605-7.599s3.405-7.599 7.605-7.599h142.448c4.2 0 7.605 3.402 7.605 7.599s-3.404 7.599-7.605 7.599z" fill="#595959"/></g><g><path d="m247.772 91.163h-142.448c-4.2 0-7.605-3.402-7.605-7.599s3.405-7.599 7.605-7.599h142.448c4.2 0 7.605 3.402 7.605 7.599s-3.404 7.599-7.605 7.599z" fill="#595959"/></g><g><path d="m318.777 282.855h-137.833c-4.2 0-7.605-3.402-7.605-7.599s3.405-7.599 7.605-7.599h137.833c4.2 0 7.605 3.402 7.605 7.599.001 4.197-3.404 7.599-7.605 7.599z" fill="#595959"/></g><g><path d="m318.777 238.953h-137.833c-4.2 0-7.605-3.402-7.605-7.599s3.405-7.599 7.605-7.599h137.833c4.2 0 7.605 3.402 7.605 7.599.001 4.197-3.404 7.599-7.605 7.599z" fill="#595959"/></g><g><path d="m318.777 412.387h-137.833c-4.2 0-7.605-3.402-7.605-7.599s3.405-7.599 7.605-7.599h137.833c4.2 0 7.605 3.402 7.605 7.599s-3.404 7.599-7.605 7.599z" fill="#595959"/></g><g><path d="m318.777 368.514h-137.833c-4.2 0-7.605-3.402-7.605-7.599s3.405-7.599 7.605-7.599h137.833c4.2 0 7.605 3.402 7.605 7.599s-3.404 7.599-7.605 7.599z" fill="#595959"/></g><g><path clip-rule="evenodd" d="m55.758 295.657h74.393c3.038 0 5.491-2.463 5.491-5.448v-73.808c0-2.376-1.548-4.405-3.709-5.158-.555-.203-1.139-.29-1.782-.29h-74.393c-3.008 0-5.491 2.434-5.491 5.448v73.808c0 2.985 2.483 5.448 5.491 5.448z" fill="#97da7b" fill-rule="evenodd"/></g><g><path clip-rule="evenodd" d="m50.267 343.732v73.808c0 2.985 2.483 5.448 5.491 5.448h74.393c3.038 0 5.491-2.463 5.491-5.448v-73.808c0-2.376-1.548-4.405-3.709-5.158-.555-.174-1.139-.29-1.782-.29h-74.393c-3.008 0-5.491 2.463-5.491 5.448z" fill="#97da7b" fill-rule="evenodd"/></g><g><path clip-rule="evenodd" d="m102.696 295.657h27.456c3.038 0 5.491-2.463 5.491-5.448v-73.808c0-2.376-1.548-4.405-3.709-5.158-.555-.203-1.139-.29-1.782-.29h-27.426c.584 0 1.198.116 1.723.29 2.161.753 3.709 2.782 3.709 5.158v73.808c0 2.985-2.454 5.448-5.462 5.448z" fill="#68ca44" fill-rule="evenodd"/></g><g><path clip-rule="evenodd" d="m102.696 422.987h27.456c3.038 0 5.491-2.463 5.491-5.448v-73.808c0-2.376-1.548-4.405-3.709-5.158-.555-.174-1.139-.29-1.782-.29h-27.426c.584 0 1.198.116 1.723.29 2.161.753 3.709 2.782 3.709 5.158v73.808c0 2.985-2.454 5.448-5.462 5.448z" fill="#68ca44" fill-rule="evenodd"/></g><g><path d="m93.348 270.916c-2.168 0-4.24-.926-5.686-2.553l-13.728-15.446c-2.789-3.138-2.504-7.941.637-10.727 3.141-2.787 7.948-2.501 10.737.636l7.505 8.444 50.445-68.078c2.499-3.373 7.262-4.083 10.638-1.586s4.087 7.255 1.587 10.628l-56.021 75.604c-1.364 1.84-3.485 2.968-5.775 3.07-.113.005-.226.008-.339.008z" fill="#595959"/></g><g><path d="m93.348 398.246c-2.168 0-4.24-.926-5.686-2.553l-13.728-15.446c-2.789-3.138-2.504-7.941.637-10.727 3.141-2.787 7.948-2.501 10.737.636l7.505 8.444 50.445-68.078c2.499-3.373 7.262-4.083 10.638-1.586s4.087 7.255 1.587 10.628l-56.021 75.604c-1.364 1.84-3.485 2.968-5.775 3.07-.113.006-.226.008-.339.008z" fill="#595959"/></g><g><path clip-rule="evenodd" d="m420.86 87.593 19.89 12.032 20.943-12.032v-34.658c0-11.157-9.171-20.256-20.416-20.256-11.216 0-20.416 9.099-20.416 20.256v34.658z" fill="#cecece" fill-rule="evenodd"/></g><g><path clip-rule="evenodd" d="m426.584 446.72 13.64 31.789c1.051 2.028 1.051 2.173 2.103 0l13.64-31.789 14.692-34.223-29.383-19.589-29.354 19.589z" fill="#838383" fill-rule="evenodd"/></g><g><path clip-rule="evenodd" d="m411.922 96.46v316.037h29.354 29.383v-292.854-23.183c0-4.868-4.031-8.867-8.967-8.867h-40.832c-4.907 0-8.938 3.999-8.938 8.867z" fill="#fe9737" fill-rule="evenodd"/></g><g><path clip-rule="evenodd" d="m441.276 52.935v34.658h20.416v-34.658c0-11.157-9.171-20.256-20.416-20.256-3.709 0-7.185.985-10.194 2.724 6.076 3.507 10.194 10.056 10.194 17.532z" fill="#b5adb6" fill-rule="evenodd"/></g><g><path clip-rule="evenodd" d="m450.243 119.643v279.234 13.62h20.416v-292.854-23.183c0-4.868-4.031-8.867-8.967-8.867h-20.416c4.936 0 8.967 3.999 8.967 8.867z" fill="#f36b37" fill-rule="evenodd"/></g><g><path clip-rule="evenodd" d="m450.243 412.497-14.692 34.223-4.469 10.461 9.142 21.328c1.051 2.028 1.051 2.173 2.103 0l13.64-31.789 14.692-34.223z" fill="#595959" fill-rule="evenodd"/></g></g></svg>